<svg width="16" height="17" viewBox="0 0 16 17" fill="none" xmlns="http://www.w3.org/2000/svg">
<path d="M1.69948 15.125H4.23073V12.5938H1.69948V15.125ZM4.79323 15.125H7.60573V12.5938H4.79323V15.125ZM1.69948 12.0312H4.23073V9.21875H1.69948V12.0312ZM4.79323 12.0312H7.60573V9.21875H4.79323V12.0312ZM1.69948 8.65625H4.23073V6.125H1.69948V8.65625ZM8.16823 15.125H10.9807V12.5938H8.16823V15.125ZM4.79323 8.65625H7.60573V6.125H4.79323V8.65625ZM11.5432 15.125H14.0745V12.5938H11.5432V15.125ZM8.16823 12.0312H10.9807V9.21875H8.16823V12.0312ZM5.07448 4.4375V1.90625C5.07448 1.83008 5.04665 1.76416 4.99098 1.7085C4.93532 1.65283 4.8694 1.625 4.79323 1.625H4.23073C4.15456 1.625 4.08864 1.65283 4.03297 1.7085C3.97731 1.76416 3.94948 1.83008 3.94948 1.90625V4.4375C3.94948 4.51367 3.97731 4.57959 4.03297 4.63525C4.08864 4.69092 4.15456 4.71875 4.23073 4.71875H4.79323C4.8694 4.71875 4.93532 4.69092 4.99098 4.63525C5.04665 4.57959 5.07448 4.51367 5.07448 4.4375ZM11.5432 12.0312H14.0745V9.21875H11.5432V12.0312ZM8.16823 8.65625H10.9807V6.125H8.16823V8.65625ZM11.5432 8.65625H14.0745V6.125H11.5432V8.65625ZM11.8245 4.4375V1.90625C11.8245 1.83008 11.7966 1.76416 11.741 1.7085C11.6853 1.65283 11.6194 1.625 11.5432 1.625H10.9807C10.9046 1.625 10.8386 1.65283 10.783 1.7085C10.7273 1.76416 10.6995 1.83008 10.6995 1.90625V4.4375C10.6995 4.51367 10.7273 4.57959 10.783 4.63525C10.8386 4.69092 10.9046 4.71875 10.9807 4.71875H11.5432C11.6194 4.71875 11.6853 4.69092 11.741 4.63525C11.7966 4.57959 11.8245 4.51367 11.8245 4.4375ZM15.1995 3.875V15.125C15.1995 15.4297 15.0882 15.6934 14.8655 15.916C14.6428 16.1387 14.3792 16.25 14.0745 16.25H1.69948C1.39479 16.25 1.13112 16.1387 0.908463 15.916C0.685806 15.6934 0.574478 15.4297 0.574478 15.125V3.875C0.574478 3.57031 0.685806 3.30664 0.908463 3.08398C1.13112 2.86133 1.39479 2.75 1.69948 2.75H2.82448V1.90625C2.82448 1.51953 2.96217 1.18848 3.23756 0.913086C3.51295 0.637695 3.84401 0.5 4.23073 0.5H4.79323C5.17995 0.5 5.511 0.637695 5.78639 0.913086C6.06178 1.18848 6.19948 1.51953 6.19948 1.90625V2.75H9.57448V1.90625C9.57448 1.51953 9.71217 1.18848 9.98756 0.913086C10.263 0.637695 10.594 0.5 10.9807 0.5H11.5432C11.9299 0.5 12.261 0.637695 12.5364 0.913086C12.8118 1.18848 12.9495 1.51953 12.9495 1.90625V2.75H14.0745C14.3792 2.75 14.6428 2.86133 14.8655 3.08398C15.0882 3.30664 15.1995 3.57031 15.1995 3.875Z" fill="#8590A2"/>
</svg>
