<svg width="13" height="14" viewBox="0 0 13 14" fill="none" xmlns="http://www.w3.org/2000/svg">
<path d="M4.5107 5.61112V10.6111C4.5107 10.6921 4.48466 10.7587 4.43257 10.8108C4.38049 10.8629 4.31394 10.8889 4.23292 10.8889H3.67737C3.59635 10.8889 3.5298 10.8629 3.47771 10.8108C3.42563 10.7587 3.39959 10.6921 3.39959 10.6111V5.61112C3.39959 5.5301 3.42563 5.46355 3.47771 5.41147C3.5298 5.35939 3.59635 5.33334 3.67737 5.33334H4.23292C4.31394 5.33334 4.38049 5.35939 4.43257 5.41147C4.48466 5.46355 4.5107 5.5301 4.5107 5.61112ZM6.73292 5.61112V10.6111C6.73292 10.6921 6.70688 10.7587 6.6548 10.8108C6.60271 10.8629 6.53616 10.8889 6.45514 10.8889H5.89959C5.81857 10.8889 5.75202 10.8629 5.69993 10.8108C5.64785 10.7587 5.62181 10.6921 5.62181 10.6111V5.61112C5.62181 5.5301 5.64785 5.46355 5.69993 5.41147C5.75202 5.35939 5.81857 5.33334 5.89959 5.33334H6.45514C6.53616 5.33334 6.60271 5.35939 6.6548 5.41147C6.70688 5.46355 6.73292 5.5301 6.73292 5.61112ZM8.95514 5.61112V10.6111C8.95514 10.6921 8.9291 10.7587 8.87702 10.8108C8.82494 10.8629 8.75838 10.8889 8.67737 10.8889H8.12181C8.04079 10.8889 7.97424 10.8629 7.92216 10.8108C7.87007 10.7587 7.84403 10.6921 7.84403 10.6111V5.61112C7.84403 5.5301 7.87007 5.46355 7.92216 5.41147C7.97424 5.35939 8.04079 5.33334 8.12181 5.33334H8.67737C8.75838 5.33334 8.82494 5.35939 8.87702 5.41147C8.9291 5.46355 8.95514 5.5301 8.95514 5.61112ZM10.0663 11.8958V3.66668H2.28848V11.8958C2.28848 12.0232 2.30873 12.1403 2.34924 12.2474C2.38975 12.3545 2.43171 12.4326 2.47511 12.4818C2.51851 12.531 2.54889 12.5556 2.56625 12.5556H9.78848C9.80584 12.5556 9.83622 12.531 9.87962 12.4818C9.92303 12.4326 9.96498 12.3545 10.0055 12.2474C10.046 12.1403 10.0663 12.0232 10.0663 11.8958ZM4.23292 2.55557H8.12181L7.70514 1.53994C7.66463 1.48786 7.61544 1.45603 7.55757 1.44445H4.80584C4.74797 1.45603 4.69878 1.48786 4.65827 1.53994L4.23292 2.55557ZM12.2885 2.83334V3.3889C12.2885 3.46992 12.2624 3.53647 12.2104 3.58855C12.1583 3.64064 12.0917 3.66668 12.0107 3.66668H11.1774V11.8958C11.1774 12.3762 11.0414 12.7914 10.7694 13.1415C10.4974 13.4916 10.1704 13.6667 9.78848 13.6667H2.56625C2.18431 13.6667 1.85734 13.4974 1.58535 13.1589C1.31336 12.8203 1.17736 12.4109 1.17736 11.9306V3.66668H0.344031C0.263013 3.66668 0.196462 3.64064 0.144379 3.58855C0.0922953 3.53647 0.0662537 3.46992 0.0662537 3.3889V2.83334C0.0662537 2.75233 0.0922953 2.68577 0.144379 2.63369C0.196462 2.58161 0.263013 2.55557 0.344031 2.55557H3.02632L3.63396 1.10591C3.72077 0.891793 3.87702 0.709501 4.10271 0.559038C4.32841 0.408575 4.55699 0.333344 4.78848 0.333344H7.56625C7.79774 0.333344 8.02632 0.408575 8.25202 0.559038C8.47771 0.709501 8.63396 0.891793 8.72077 1.10591L9.32841 2.55557H12.0107C12.0917 2.55557 12.1583 2.58161 12.2104 2.63369C12.2624 2.68577 12.2885 2.75233 12.2885 2.83334Z" fill="#1E4054"/>
</svg>
