<svg width="60" height="60" viewBox="0 0 60 60" fill="none" xmlns="http://www.w3.org/2000/svg">
<path d="M0 8C0 3.58172 3.58172 0 8 0H52C56.4183 0 60 3.58172 60 8V52C60 56.4183 56.4183 60 52 60H8C3.58172 60 0 56.4183 0 52V8Z" fill="#F3F5F8"/>
<path d="M40.6667 19.3333H19.3333C17.8667 19.3333 16.68 20.5333 16.68 22L16.6667 38C16.6667 39.4667 17.8667 40.6667 19.3333 40.6667H40.6667C42.1333 40.6667 43.3333 39.4667 43.3333 38V22C43.3333 20.5333 42.1333 19.3333 40.6667 19.3333ZM40.6667 24.6667L30 31.3333L19.3333 24.6667V22L30 28.6667L40.6667 22V24.6667Z" fill="#31576D"/>
</svg>
