<svg width="33" height="32" viewBox="0 0 33 32" fill="none" xmlns="http://www.w3.org/2000/svg">
<g id="icon">
<path id="Vector" d="M8.66665 9.33333V4H24.6666V9.33333H8.66665ZM24.6666 16.6667C25.0444 16.6667 25.3613 16.5387 25.6173 16.2827C25.8733 16.0267 26.0009 15.7102 26 15.3333C25.9991 14.9564 25.8711 14.64 25.616 14.384C25.3609 14.128 25.0444 14 24.6666 14C24.2889 14 23.9724 14.128 23.7173 14.384C23.4622 14.64 23.3342 14.9564 23.3333 15.3333C23.3324 15.7102 23.4604 16.0271 23.7173 16.284C23.9742 16.5409 24.2906 16.6684 24.6666 16.6667ZM11.3333 25.3333H22V20H11.3333V25.3333ZM8.66665 28V22.6667H3.33331V10.6667H30V22.6667H24.6666V28H8.66665Z" fill="#31576D"/>
</g>
</svg>
