<svg width="33" height="32" viewBox="0 0 33 32" fill="none" xmlns="http://www.w3.org/2000/svg">
<g id="icon">
<path id="Vector" d="M11 14.36C11.2756 14.36 11.5156 14.2578 11.72 14.0533C11.9245 13.8489 12.0267 13.6089 12.0267 13.3333C12.0267 13.0578 11.9245 12.8178 11.72 12.6133C11.5156 12.4089 11.2756 12.3067 11 12.3067C10.7245 12.3067 10.4845 12.4089 10.28 12.6133C10.0756 12.8178 9.97334 13.0578 9.97334 13.3333C9.97334 13.6089 10.0756 13.8489 10.28 14.0533C10.4845 14.2578 10.7245 14.36 11 14.36ZM16.3333 14.36C16.6089 14.36 16.8489 14.2578 17.0533 14.0533C17.2578 13.8489 17.36 13.6089 17.36 13.3333C17.36 13.0578 17.2578 12.8178 17.0533 12.6133C16.8489 12.4089 16.6089 12.3067 16.3333 12.3067C16.0578 12.3067 15.8178 12.4089 15.6133 12.6133C15.4089 12.8178 15.3067 13.0578 15.3067 13.3333C15.3067 13.6089 15.4089 13.8489 15.6133 14.0533C15.8178 14.2578 16.0578 14.36 16.3333 14.36ZM21.6667 14.36C21.9422 14.36 22.1822 14.2578 22.3867 14.0533C22.5911 13.8489 22.6933 13.6089 22.6933 13.3333C22.6933 13.0578 22.5911 12.8178 22.3867 12.6133C22.1822 12.4089 21.9422 12.3067 21.6667 12.3067C21.3911 12.3067 21.1511 12.4089 20.9467 12.6133C20.7422 12.8178 20.64 13.0578 20.64 13.3333C20.64 13.6089 20.7422 13.8489 20.9467 14.0533C21.1511 14.2578 21.3911 14.36 21.6667 14.36ZM4.33334 26.768V6.15333C4.33334 5.54 4.53912 5.028 4.95068 4.61733C5.36223 4.20667 5.87423 4.00089 6.48668 4H26.18C26.7933 4 27.3053 4.20578 27.716 4.61733C28.1267 5.02889 28.3325 5.54089 28.3333 6.15333V20.5133C28.3333 21.1267 28.128 21.6391 27.7173 22.0507C27.3067 22.4622 26.7942 22.6676 26.18 22.6667H8.43601L4.33334 26.768Z" fill="#31576D"/>
</g>
</svg>
